<svg xmlns="http://www.w3.org/2000/svg" viewBox="0 0 206.13 293.84"><defs><style>.cls-1{fill:#f4ca16;}.cls-1,.cls-2{stroke:#fff;stroke-miterlimit:10;stroke-width:2px;}</style></defs><g id="Слой_2" data-name="Слой 2"><g id="Слой_1-2" data-name="Слой 1"><path class="cls-1" d="M111.44,141.36c-5.5.24-11,.27-16.5,0-3.65-.18-4.65,1.06-4.65,4.66.14,23.73.07,47.46.07,71.2v-.06c0,23.78.08,47.52-.09,71.25,0,3.63,1.17,4.52,4.5,4.38,5.25-.22,10.5-.06,15.75-.06,5,0,5,0,5-4.92v-96.7c0-15.26-.12-30.51,0-45.75C115.53,142.26,114.55,141.23,111.44,141.36Z"/><path class="cls-2" d="M115.66,3.56C115.82,1.61,115,1,113,1c-6.11.13-12.24.24-18.34,0-3.29-.14-4.37.61-4.37,4.19.19,21.1.09,42.2.09,63.3s.09,42.46-.09,63.67c0,3.21.93,3.88,3.93,3.75,5.86-.24,11.75-.25,17.61,0,3.13.11,3.88-.76,3.88-3.89q-.08-63.3-.07-126.61C115.66,4.81,115.61,4.18,115.66,3.56Z"/><path class="cls-2" d="M82.2,29.08c-6,.24-12,.29-18,0-3.26-.16-3.83,1-3.75,4,.21,8,.07,16,.07,24,0,34.2,0,68.41-.07,102.61-.06,3.14.84,4,3.94,3.89,5.85-.26,11.73-.25,17.59,0,3,.13,4-.62,4-3.82-.15-21.22-.07-42.44-.07-63.67s-.07-42.17.09-63.34C86,29.76,85.11,29,82.2,29.08Z"/><path class="cls-2" d="M172.68,57c-6.26.15-12.52.3-18.75,0-3.32-.17-4.07.81-4.07,4.09q.07,67.5.07,135v3.24l1.74,1.12c7.44-7.92,14.86-15.82,22.36-23.67a4.37,4.37,0,0,0,1.21-3.34q-.11-57,0-114C175.24,57.36,174.54,57,172.68,57Z"/><path class="cls-2" d="M53.4,57.05c-6.62.1-13.23.17-19.85,0-2.42-.06-2.84.8-2.84,3v113.1A4.88,4.88,0,0,0,32,176.86c7.5,7.84,14.94,15.78,22.5,23.78,1.26-1.35,1.43-1.44,1.43-1.55q0-69.84.11-139.68C56,57.25,55.18,57.05,53.4,57.05Z"/><path class="cls-2" d="M142.18,29.1c-6.12.17-12.24.26-18.35,0-3-.12-3.64.9-3.64,3.75.12,21.21.06,42.44.06,63.66s0,42.44-.07,63.62c0,2.47.46,3.51,3.22,3.41,6.27-.19,12.51-.13,18.75,0,2.28,0,3.23-.37,3.23-3q-.12-64.21,0-128.44C145.39,29.46,144.43,29.05,142.18,29.1Z"/><path class="cls-1" d="M85.77,170.43c.06-2.39-1-3.28-3.41-3.23-5.62.14-11.24.05-16.87.05-5,0-5,0-5,4.94v57.73h0c0,19.36.1,38.73-.09,58.09-.08,3.9,1.17,5,4.92,4.77a156.57,156.57,0,0,1,16.5,0c3.42.17,4.12-1.07,4.12-4.28q-.08-57.17-.07-114.31C85.83,172.92,85.77,171.67,85.77,170.43Z"/><path class="cls-1" d="M145.24,230.21l-.08-35.91V170.71c0-1.71-.06-3.21-2.48-3.21-6.47,0-13-.08-19.47-.19-2.47-.05-3.16,1.19-3.16,3.49q.09,59.16,0,118.32c0,2.8,1,3.8,3.76,3.71,5.77-.17,11.52-.25,17.25,0,3.25.14,4.25-.9,4.25-4.21C145.17,269.15,145.24,249.71,145.24,230.21Z"/><path class="cls-2" d="M205.13,88.14c0-1.85-.36-2.6-2.43-2.6q-10.14.18-20.25,0c-2.13,0-2.71.59-2.71,2.72v84.15c8.55-7.62,16.44-14.65,24.38-21.66,1-.87.93-1.93.93-3.05Q205.05,117.91,205.13,88.14Z"/><path class="cls-2" d="M23.69,85.56c-6.61.09-13.23.17-19.84,0C1.47,85.49,1,86.24,1,88.49q.06,29.57.06,59.14c0,1.12-.18,2.22.82,3.12,7.92,7,15.74,14,23.67,21.09.3-.58.5-.8.49-1q0-41.55.09-83.1C26.14,85.8,25.33,85.56,23.69,85.56Z"/></g></g></svg>