<svg xmlns="http://www.w3.org/2000/svg" viewBox="0 0 955.24 615.64"><defs><style>.cls-1{fill:#fac600;}.cls-2{fill:#ec921a;}.cls-3{fill:#f1a400;}.cls-4{fill:#f0a70a;}.cls-5{font-size:65px;font-family:Calibri-Bold, Calibri;font-weight:700;}.cls-6{letter-spacing:-0.01em;}.cls-7{letter-spacing:-0.02em;}.cls-8{letter-spacing:-0.01em;}</style></defs><g id="Слой_2" data-name="Слой 2"><g id="Слой_6" data-name="Слой 6"><path class="cls-1" d="M771.05,210c-1.3-18.53,3.1-32.87,6-41.86,4.42-8.08,10.89-24.71,10.57-45.7a79.91,79.91,0,0,0-4.66-27c-12.35-33.5-46.77-48.47-61.74-55a163.7,163.7,0,0,0-33.82-10.25c-6.74-1.4-19.29-3.63-48-4.15a561.64,561.64,0,0,0-56.51,1.53C527,32.08,472.19,47,450.33,53.33c20.09-7.76,42-15.36,65.6-22.4,24.92-7.43,48.6-13.29,70.69-17.93C711.79-6.4,809.84-2.14,857.16,13c4.54,1.46,48.94,16.11,74.19,46a110.33,110.33,0,0,1,16.87,27.64c1,2.57,7.25,18.55,6.83,34.62-.65,25.33-18.13,45.4-53.09,85.52a164.79,164.79,0,0,0-26.47,39.86c-2.16,4.64-3.71,8.54-4.65,11.05-28.71-.48-57.26.49-86,0A120.3,120.3,0,0,1,771.05,210Z"/><path class="cls-2" d="M777.07,168.12c8.95,6.88,14,11.47,21.26,22.19a100.77,100.77,0,0,1,16.48,67.48L762,257.71l-52.86-.09a276.9,276.9,0,0,0,32-33,266.39,266.39,0,0,0,25-35.89C770.68,180.76,774.2,173.85,777.07,168.12Z"/><path class="cls-3" d="M847.71,257.56l50.18.21a250.25,250.25,0,0,0,41.31-65.31c5.44-12.63,12.46-29.24,14.84-52.37,1.22-11.9,2.73-26.54-2.33-44.21-6.77-23.66-21.1-38.28-28.51-45.68-15.92-15.89-33.28-23.6-47.66-30.08a184.69,184.69,0,0,0-17.43-6.81A194.69,194.69,0,0,0,831,6.69c-7.13-1.34-16.24-2.78-26.94-3.77A208.54,208.54,0,0,1,841.6,25.77c8.74,6.68,26.22,21.15,39.69,40.7.58.84,12.58,20.55,16.46,39.88,3.54,17.66,1.93,31.53.87,40-2.48,19.84-8.52,33.94-13.67,46-6.09,14.2-12.51,24.82-24.88,45.38C855,246.07,850.71,252.9,847.71,257.56Z"/><path class="cls-1" d="M499.85,433.18l161.82-.72A1725,1725,0,0,1,502,509,1733.6,1733.6,0,0,1,138.33,615.64H0a1637.71,1637.71,0,0,0,162.33-39.33,1648.32,1648.32,0,0,0,283.2-113.89C468.6,450.56,487.35,440.22,499.85,433.18Z"/><path class="cls-4" d="M621.24,432.64a1786.38,1786.38,0,0,1-205.09,95.24,1787,1787,0,0,1-301.6,87.76h23.78c12.59-2.24,29.83-5.46,50.23-9.71a1807.51,1807.51,0,0,0,192-51.58c123-40.76,225-91.81,281.16-121.89Z"/><text class="cls-5" transform="translate(314.35 325.62)">Ин<tspan class="cls-6" x="77.82" y="0">т</tspan><tspan class="cls-7" x="102.74" y="0">е</tspan><tspan x="134.41" y="0">ллектуальные</tspan><tspan x="0" y="78">Сис</tspan><tspan class="cls-6" x="97.79" y="78">т</tspan><tspan class="cls-8" x="122.7" y="78">е</tspan><tspan x="154.95" y="78">мы</tspan></text><g id="Слой_2-2" data-name="Слой 2"><g id="Слой_1-2" data-name="Слой 1-2"><path class="cls-1" d="M119.14,331.92c0-31.65.09-63.29-.09-94.93,0-4.8,1.35-6.46,6.2-6.22,7.31.37,14.66.33,22,0,4.14-.17,5.45,1.2,5.42,5.35-.16,20.32,0,40.65,0,61V426.06c0,6.55,0,6.55-6.63,6.56-7,0-14-.22-21,.08-4.44.18-6-1-6-5.84.22-31.65.11-63.3.11-95Z"/><path d="M119.2,133.64c0-28.13.13-56.27-.13-84.4,0-4.77,1.44-5.77,5.83-5.59,8.14.33,16.31.18,24.46,0,2.58,0,3.73.79,3.51,3.39-.06.83,0,1.67,0,2.5q0,84.41.1,168.81c0,4.17-1,5.38-5.18,5.19-7.81-.34-15.66-.33-23.47,0-4,.17-5.27-.72-5.24-5C119.32,190.26,119.2,162,119.2,133.64Z"/><path d="M113.14,170.42c0,28.3-.1,56.6.1,84.89,0,4.27-1.22,5.27-5.27,5.09-7.81-.33-15.65-.34-23.46,0-4.13.18-5.27-1-5.25-5.18.16-45.61.1-91.22.09-136.82,0-10.66.19-21.32-.09-32-.11-4,.66-5.54,5-5.33,8,.39,16,.32,24,0,3.88-.15,5,.9,5,4.89C113.05,114.16,113.14,142.29,113.14,170.42Z"/><path d="M198.57,308.05v-4.32q0-90-.1-179.94c0-4.38,1-5.68,5.43-5.46,8.31.41,16.66.2,25,.07,2.48,0,3.41.5,3.41,3.25q-.13,76-.05,152a5.8,5.8,0,0,1-1.61,4.46c-10,10.46-19.89,21-29.81,31.56Z"/><path d="M71.32,309.82c-10.09-10.7-20-21.26-30-31.71a6.49,6.49,0,0,1-1.71-4.95V122.36c0-2.93.56-4.08,3.79-4,8.82.23,17.64.14,26.46,0,2.37,0,3.51.27,3.51,3.15q-.16,93.12-.15,186.24C73.22,307.9,73,308,71.32,309.82Z"/><path d="M159,171c0-28.29.07-56.59-.08-84.88,0-3.8.79-5.16,4.85-5,8.14.35,16.31.23,24.46,0,3-.06,4.28.49,4.27,4q-.17,85.64,0,171.26c0,3.51-1.27,4-4.3,4-8.32-.18-16.65-.25-25,0-3.69.13-4.32-1.25-4.3-4.55Q159.05,213.44,159,171Z"/><path class="cls-1" d="M79.32,348.88v-77c0-6.58,0-6.58,6.72-6.58,7.5,0,15,.11,22.49-.07,3.22-.07,4.63,1.12,4.54,4.3,0,1.66.08,3.33.08,5q0,76.2.1,152.42c0,4.28-.93,5.93-5.49,5.7a212.42,212.42,0,0,0-22,0c-5,.27-6.62-1.16-6.56-6.35.25-25.82.11-51.64.11-77.46Z"/><path class="cls-1" d="M192.32,349.24c0,26-.1,51.92.09,77.88,0,4.42-1.29,5.8-5.67,5.61-7.64-.33-15.31-.22-23,0-3.66.08-5-1.26-5-4.94q.12-78.89,0-157.76c0-3.07.92-4.72,4.22-4.66,8.65.15,17.3.29,25.95.26,3.23,0,3.32,2,3.31,4.28v31.45Z"/><path d="M238.32,272.17c0-38.3,0-75.25-.06-112.19,0-2.84.77-3.68,3.61-3.63q13.49.26,27,0c2.77-.06,3.26,1,3.25,3.46q-.12,39.7,0,79.42c0,1.49.08,2.9-1.24,4.07C260.23,252.64,249.72,262,238.32,272.17Z"/><path d="M32.73,271.42c-10.58-9.45-21-18.81-31.56-28.13-1.36-1.2-1.09-2.65-1.09-4.15q0-39.42-.08-78.86c0-3,.62-4,3.8-3.91,8.81.23,17.63.13,26.45,0,2.19,0,3.26.33,3.25,2.93q-.14,55.39-.12,110.79C33.38,270.35,33.13,270.64,32.73,271.42Z"/></g></g></g></g></svg>